<svg xmlns="http://www.w3.org/2000/svg" viewBox="0 0 32 36" shape-rendering="crispEdges" role="img" aria-label="Club AtlÕtico Banfield">
  <path fill="#c9a227" d="M14 0h4v2h-4zm-2 2h2v2h-2zm8 0h2v2h-2zM10 4h2v2h-2zm10 0h2v2h-2zM8 6h2v2H8zm12 0h2v2h-2zM6 8h2v2H6zm16 0h2v2h-2zM4 10h2v2H4zm22 0h2v2h-2zM2 12h2v20H2zm26 0h2v20h-2zM4 32h2v2H4zm22 0h2v2h-2zM6 34h2v2H6zm18 0h2v2h-2zM8 36h16v-2H8z"/>
  <path fill="#0d6b3a" d="M4 12h6v20H4zm18 0h6v20h-6zM10 12h4v20h-4zm14 0h4v20h-4z"/>
  <path fill="#fff" d="M14 12h4v20h-4zM10 12h4v20H10zm8 0h4v20h-4z"/>
  <path fill="#0d6b3a" d="M6 12h4v20H6zm22 0h4v20h-4z"/>
  <text x="8" y="25" font-family="monospace" font-size="7" font-weight="bold" fill="#111">C</text>
  <text x="14" y="25" font-family="monospace" font-size="7" font-weight="bold" fill="#111">A</text>
  <text x="20" y="25" font-family="monospace" font-size="7" font-weight="bold" fill="#111">B</text>
  <rect x="11" y="1" width="2" height="2" fill="#c9a227"/>
  <rect x="19" y="1" width="2" height="2" fill="#c9a227"/>
</svg>
