<svg xmlns="http://www.w3.org/2000/svg" viewBox="0 0 640 360" fill="none">
  <rect width="640" height="360" fill="#0F0F0F"/>
  <rect x="80" y="60" width="160" height="100" rx="8" fill="#141414" stroke="rgba(255,255,255,0.1)"/>
  <rect x="100" y="80" width="120" height="8" rx="2" fill="#2A2A2A"/>
  <rect x="100" y="96" width="80" height="6" rx="2" fill="#1C1C1C"/>
  <circle cx="160" cy="130" r="6" fill="#4ADE80"/>
  <text x="160" y="155" text-anchor="middle" fill="#737373" font-family="system-ui,sans-serif" font-size="9">Game Server</text>
  <rect x="260" y="60" width="160" height="100" rx="8" fill="#141414" stroke="rgba(255,255,255,0.1)"/>
  <rect x="280" y="80" width="120" height="8" rx="2" fill="#2A2A2A"/>
  <circle cx="340" cy="130" r="6" fill="#4ADE80"/>
  <text x="340" y="155" text-anchor="middle" fill="#737373" font-family="system-ui,sans-serif" font-size="9">DB Server</text>
  <rect x="440" y="60" width="160" height="100" rx="8" fill="#141414" stroke="rgba(255,255,255,0.1)"/>
  <rect x="460" y="80" width="120" height="8" rx="2" fill="#2A2A2A"/>
  <circle cx="520" cy="130" r="6" fill="#4ADE80"/>
  <text x="520" y="155" text-anchor="middle" fill="#737373" font-family="system-ui,sans-serif" font-size="9">Monitor</text>
  <line x1="240" y1="110" x2="260" y2="110" stroke="rgba(232,228,221,0.3)" stroke-width="2"/>
  <line x1="420" y1="110" x2="440" y2="110" stroke="rgba(232,228,221,0.3)" stroke-width="2"/>
  <text x="320" y="210" text-anchor="middle" fill="#E8E4DD" font-family="system-ui,sans-serif" font-size="18" font-weight="700">9z Gaming</text>
  <text x="320" y="234" text-anchor="middle" fill="#737373" font-family="system-ui,sans-serif" font-size="12">Alta disponibilidad · monitoreo 24/7</text>
  <rect x="200" y="260" width="240" height="8" rx="4" fill="#1C1C1C"/>
  <rect x="200" y="260" width="220" height="8" rx="4" fill="#4ADE80" opacity="0.6"/>
  <text x="320" y="290" text-anchor="middle" fill="#737373" font-family="system-ui,sans-serif" font-size="10">Uptime 99.2%</text>
</svg>
