<svg xmlns="http://www.w3.org/2000/svg" viewBox="0 0 640 360" fill="none">
  <rect width="640" height="360" fill="#0F0F0F"/>
  <rect x="48" y="40" width="544" height="280" rx="10" fill="#141414" stroke="rgba(255,255,255,0.1)"/>
  <rect x="48" y="40" width="544" height="44" rx="10" fill="#1A1A1A"/>
  <text x="72" y="68" fill="#E8E4DD" font-family="system-ui,sans-serif" font-size="14" font-weight="600">Sistema de Planillas</text>
  <text x="520" y="68" text-anchor="end" fill="#737373" font-family="monospace" font-size="11">Python</text>
  <rect x="72" y="100" width="160" height="28" rx="6" fill="#1C1C1C" stroke="rgba(255,255,255,0.08)"/>
  <text x="152" y="119" text-anchor="middle" fill="#737373" font-family="system-ui,sans-serif" font-size="10">Bejerman SQL</text>
  <rect x="240" y="100" width="160" height="28" rx="6" fill="rgba(232,228,221,0.12)" stroke="rgba(232,228,221,0.2)"/>
  <text x="320" y="119" text-anchor="middle" fill="#E8E4DD" font-family="system-ui,sans-serif" font-size="10">Transferencia</text>
  <rect x="408" y="100" width="160" height="28" rx="6" fill="#1C1C1C" stroke="rgba(255,255,255,0.08)"/>
  <text x="488" y="119" text-anchor="middle" fill="#737373" font-family="system-ui,sans-serif" font-size="10">Referral I+D</text>
  <rect x="72" y="144" width="496" height="120" rx="8" fill="#1A1A1A" stroke="rgba(255,255,255,0.06)"/>
  <text x="88" y="168" fill="#737373" font-family="system-ui,sans-serif" font-size="10">TEXTO GENERADO</text>
  <rect x="88" y="180" width="420" height="8" rx="2" fill="#2A2A2A"/>
  <rect x="88" y="196" width="380" height="8" rx="2" fill="#2A2A2A"/>
  <rect x="88" y="212" width="400" height="8" rx="2" fill="#2A2A2A"/>
  <rect x="88" y="228" width="340" height="8" rx="2" fill="#2A2A2A"/>
  <rect x="72" y="280" width="120" height="28" rx="6" fill="#E8E4DD"/>
  <text x="132" y="299" text-anchor="middle" fill="#090909" font-family="system-ui,sans-serif" font-size="11" font-weight="600">Copiar</text>
  <rect x="200" y="280" width="120" height="28" rx="6" fill="#1C1C1C" stroke="rgba(255,255,255,0.1)"/>
  <text x="260" y="299" text-anchor="middle" fill="#E8E4DD" font-family="system-ui,sans-serif" font-size="11">Oportunidad</text>
</svg>
