<svg xmlns="http://www.w3.org/2000/svg" viewBox="0 0 640 360" fill="none">
  <rect width="640" height="360" fill="#0F0F0F"/>
  <rect x="80" y="20" width="480" height="320" rx="12" fill="#141414" stroke="rgba(255,255,255,0.1)"/>
  <rect x="80" y="20" width="480" height="36" rx="12" fill="#1A1A1A"/>
  <rect x="80" y="44" width="480" height="12" fill="#1A1A1A"/>
  <rect x="96" y="30" width="280" height="16" rx="8" fill="#0F0F0F" stroke="rgba(255,255,255,0.1)"/>
  <text x="110" y="42" fill="#737373" font-family="system-ui,sans-serif" font-size="10">localhost:5180</text>
  <rect x="96" y="72" width="448" height="48" rx="8" fill="#1C1C1C" stroke="rgba(232,228,221,0.15)"/>
  <text x="120" y="102" fill="#F35C19" font-family="system-ui,sans-serif" font-size="18" font-weight="800">ST2 WEB</text>
  <rect x="400" y="84" width="128" height="24" rx="12" fill="rgba(232,228,221,0.12)"/>
  <text x="464" y="100" text-anchor="middle" fill="#E8E4DD" font-family="system-ui,sans-serif" font-size="10">Misma suite ¯ web</text>
  <rect x="96" y="136" width="448" height="32" rx="6" fill="#1A1A1A" stroke="rgba(255,255,255,0.08)"/>
  <text x="112" y="157" fill="#737373" font-family="system-ui,sans-serif" font-size="11">Buscar FAQs, videos, manuales&</text>
  <rect x="96" y="180" width="210" height="120" rx="8" fill="#1A1A1A" stroke="rgba(255,255,255,0.06)"/>
  <rect x="108" y="192" width="100" height="12" rx="3" fill="rgba(232,228,221,0.2)"/>
  <rect x="108" y="212" width="170" height="8" rx="2" fill="#2A2A2A"/>
  <rect x="108" y="228" width="150" height="8" rx="2" fill="#2A2A2A"/>
  <rect x="108" y="244" width="160" height="8" rx="2" fill="#2A2A2A"/>
  <rect x="318" y="180" width="226" height="120" rx="8" fill="#1A1A1A" stroke="rgba(255,255,255,0.06)"/>
  <text x="334" y="204" fill="#E8E4DD" font-family="system-ui,sans-serif" font-size="11" font-weight="600">Vista previa</text>
  <rect x="334" y="214" width="190" height="8" rx="2" fill="#2A2A2A"/>
  <rect x="334" y="230" width="170" height="8" rx="2" fill="#2A2A2A"/>
  <rect x="334" y="246" width="180" height="8" rx="2" fill="#2A2A2A"/>
  <rect x="334" y="270" width="80" height="20" rx="4" fill="#E8E4DD"/>
  <text x="374" y="284" text-anchor="middle" fill="#090909" font-family="system-ui,sans-serif" font-size="9" font-weight="600">API REST</text>
</svg>
