<svg xmlns="http://www.w3.org/2000/svg" viewBox="0 0 640 360" fill="none">
  <rect width="640" height="360" fill="#0F0F0F"/>
  <rect x="24" y="24" width="592" height="312" rx="10" fill="#141414" stroke="rgba(255,255,255,0.1)"/>
  <rect x="24" y="24" width="592" height="40" rx="10" fill="#1A1A1A"/>
  <circle cx="44" cy="44" r="5" fill="#555"/>
  <circle cx="60" cy="44" r="5" fill="#555"/>
  <circle cx="76" cy="44" r="5" fill="#555"/>
  <text x="320" y="49" text-anchor="middle" fill="#F35C19" font-family="system-ui,sans-serif" font-size="13" font-weight="700">ST2 — Sistema de Planillas</text>
  <rect x="40" y="76" width="560" height="36" rx="6" fill="#1C1C1C" stroke="rgba(243,92,25,0.25)"/>
  <text x="56" y="99" fill="#737373" font-family="system-ui,sans-serif" font-size="12">Buscar documentacion y FAQs...</text>
  <rect x="40" y="124" width="120" height="28" rx="14" fill="rgba(243,92,25,0.2)"/>
  <text x="100" y="143" text-anchor="middle" fill="#F35C19" font-family="system-ui,sans-serif" font-size="11" font-weight="700">Planillas</text>
  <rect x="168" y="124" width="120" height="28" rx="14" fill="#1C1C1C" stroke="rgba(255,255,255,0.08)"/>
  <text x="228" y="143" text-anchor="middle" fill="#737373" font-family="system-ui,sans-serif" font-size="11">Conocimiento</text>
  <rect x="296" y="124" width="120" height="28" rx="14" fill="#1C1C1C" stroke="rgba(255,255,255,0.08)"/>
  <text x="356" y="143" text-anchor="middle" fill="#737373" font-family="system-ui,sans-serif" font-size="11">Recursos web</text>
  <rect x="40" y="168" width="260" height="148" rx="8" fill="#1A1A1A" stroke="rgba(255,255,255,0.06)"/>
  <rect x="52" y="180" width="80" height="14" rx="3" fill="rgba(243,92,25,0.3)"/>
  <rect x="52" y="202" width="220" height="8" rx="2" fill="#2A2A2A"/>
  <rect x="52" y="218" width="180" height="8" rx="2" fill="#2A2A2A"/>
  <rect x="52" y="234" width="200" height="8" rx="2" fill="#2A2A2A"/>
  <rect x="316" y="168" width="284" height="148" rx="8" fill="#1A1A1A" stroke="rgba(255,255,255,0.06)"/>
  <text x="332" y="192" fill="#E8E4DD" font-family="system-ui,sans-serif" font-size="12" font-weight="600">Plantilla de caso</text>
  <rect x="332" y="204" width="120" height="10" rx="2" fill="#2A2A2A"/>
  <rect x="332" y="224" width="240" height="32" rx="6" fill="#141414" stroke="rgba(255,255,255,0.08)"/>
  <rect x="332" y="268" width="100" height="28" rx="6" fill="#F35C19"/>
  <text x="382" y="287" text-anchor="middle" fill="#fff" font-family="system-ui,sans-serif" font-size="11" font-weight="600">Copiar</text>
</svg>
